<?xml version="1.0" encoding="UTF-8"?>
<svg fill="none" viewBox="0 0 110 33" xmlns="http://www.w3.org/2000/svg">
<g clip-path="url(#a)" fill="#000">
<path d="m67.776 25.783c-6.3237 4.6757-15.522 7.1669-23.455 7.1669-11.114 0-21.079-4.1009-28.668-10.923-0.5749-0.5366-0.0767-1.2647 0.6515-0.8432 8.1633 4.7524 18.243 7.5885 28.668 7.5885 7.0136 0 14.755-1.4564 21.884-4.4841 1.0731-0.4216 1.9546 0.7282 0.9198 1.4947z" clip-rule="evenodd" fill-rule="evenodd"/>
<path d="m70.421 22.756c-0.8049-1.0348-5.3656-0.4982-7.3969-0.2299-0.6132 0.0766-0.7281-0.4599-0.1533-0.8432 3.641-2.5678 9.5814-1.8013 10.271-0.9581 0.6899 0.8431-0.1916 6.8219-3.6026 9.658-0.5366 0.4216-1.0348 0.1917-0.8048-0.3832 0.7665-1.9163 2.4911-6.1704 1.6863-7.2436z" clip-rule="evenodd" fill-rule="evenodd"/>
<path d="m63.139 3.6694v-2.4912c0-0.38325 0.2683-0.61321 0.6132-0.61321h11.114c0.345 0 0.6516 0.26828 0.6516 0.61321v2.1079c0 0.34493-0.3066 0.80483-0.8432 1.5713l-5.7488 8.2016c2.1462-0.0383 4.4074 0.2683 6.3237 1.3414 0.4216 0.23 0.5365 0.6132 0.5749 0.9582v2.6444c0 0.3833-0.3833 0.8049-0.8049 0.5749-3.4109-1.8013-7.9717-1.9929-11.728 0.0383-0.3832 0.1917-0.8048-0.1916-0.8048-0.5749v-2.5294c0-0.3833 0-1.0732 0.4216-1.6864l6.6686-9.543h-5.7872c-0.3449 0-0.6515-0.26828-0.6515-0.61321zm-40.51 15.445h-3.3726c-0.3066-0.0384-0.5749-0.2683-0.6132-0.5749v-17.323c0-0.34493 0.3066-0.61321 0.6515-0.61321h3.1427c0.3449 0 0.5749 0.26828 0.6132 0.57488v2.2612h0.0766c0.8049-2.1846 2.3762-3.2193 4.4458-3.2193 2.1079 0 3.4493 1.0348 4.3691 3.2193 0.8049-2.1846 2.6828-3.2193 4.6757-3.2193 1.4181 0 2.9511 0.57488 3.9092 1.9163 1.0732 1.4564 0.8432 3.5643 0.8432 5.4422v10.961c0 0.3449-0.3066 0.6132-0.6515 0.6132h-3.3343c-0.345-0.0383-0.6133-0.3066-0.6133-0.6132v-9.1982c0-0.72819 0.0767-2.5678-0.0766-3.2577-0.2683-1.1498-0.9965-1.4947-1.9929-1.4947-0.8049 0-1.6864 0.53656-2.0313 1.418s-0.3066 2.3379-0.3066 3.3343v9.1982c0 0.3449-0.3066 0.6132-0.6515 0.6132h-3.3727c-0.3449-0.0383-0.6132-0.3066-0.6132-0.6132v-9.1982c0-1.9163 0.3066-4.7907-2.0696-4.7907-2.4145 0-2.3378 2.7594-2.3378 4.7907v9.1982c-0.0383 0.3066-0.3066 0.5749-0.6899 0.5749zm62.471-18.895c5.0206 0 7.7417 4.2925 7.7417 9.773 0 5.2889-2.9894 9.5047-7.7417 9.5047-4.9057 0-7.5885-4.2924-7.5885-9.658-0.0383-5.4039 2.6828-9.6197 7.5885-9.6197zm0 3.5643c-2.4912 0-2.6445 3.411-2.6445 5.5189 0 2.1079-0.0383 6.6303 2.6061 6.6303 2.6062 0 2.7595-3.6409 2.7595-5.8638 0-1.4563-0.0767-3.2193-0.4983-4.599-0.3832-1.2264-1.1497-1.6863-2.2228-1.6863zm14.219 15.33h-3.3726c-0.3449-0.0384-0.6132-0.3066-0.6132-0.6133v-17.361c0.0383-0.30661 0.3066-0.57489 0.6515-0.57489h3.1427c0.3066 0 0.5366 0.22995 0.6132 0.49824v2.6445h0.0767c0.9584-2.3762 2.2614-3.4876 4.5994-3.4876 1.494 0 2.989 0.53656 3.947 2.0313 0.882 1.3797 0.882 3.7176 0.882 5.4039v10.923c-0.039 0.3066-0.307 0.5366-0.652 0.5366h-3.373c-0.306-0.0384-0.574-0.2683-0.613-0.5366v-9.4281c0-1.9163 0.23-4.6757-2.108-4.6757-0.804 0-1.571 0.53655-1.954 1.3797-0.46 1.0731-0.537 2.1079-0.537 3.296v9.3514c-0.0381 0.345-0.3447 0.6133-0.6897 0.6133zm-41.622-0.0384c-0.23 0.1917-0.5366 0.23-0.8048 0.0767-1.1115-0.9198-1.3414-1.3797-1.9546-2.2612-1.8397 1.8779-3.1811 2.4528-5.5573 2.4528-2.836 0-5.0589-1.763-5.0589-5.2506 0-2.7594 1.4947-4.599 3.6026-5.5189 1.8396-0.80484 4.4074-0.95814 6.362-1.1881v-0.42158c0-0.80484 0.0767-1.763-0.4216-2.4528-0.4215-0.6132-1.1881-0.88148-1.8779-0.88148-1.3031 0-2.4529 0.65153-2.7211 2.0312-0.0767 0.3066-0.2683 0.61321-0.5749 0.61321l-3.2577-0.34493c-0.2683-0.07665-0.5749-0.26828-0.4982-0.68986 0.7665-3.9859 4.3308-5.1739 7.5501-5.1739 1.648 0 3.7942 0.42158 5.0973 1.6863 1.648 1.533 1.4947 3.6026 1.4947 5.8255v5.2506c0 1.5713 0.6515 2.2612 1.2648 3.1427 0.2299 0.3066 0.2682 0.6898 0 0.8815-0.7282 0.5748-1.9547 1.6479-2.6445 2.2228zm-3.411-8.24v-0.7281c-2.4528 0-5.0206 0.5365-5.0206 3.4109 0 1.4564 0.7665 2.4529 2.0696 2.4529 0.9581 0 1.8013-0.5749 2.3378-1.5331 0.6515-1.188 0.6132-2.2995 0.6132-3.6026zm-41.698 8.3167c-1.1114-0.9198-1.3414-1.3797-1.9546-2.2612-1.8396 1.8779-3.181 2.4528-5.5572 2.4528-2.8361 0-5.059-1.763-5.059-5.2506 0-2.7594 1.4947-4.599 3.6026-5.5189 1.8396-0.80484 4.4074-0.95814 6.362-1.1881v-0.42158c0-0.80484 0.07661-1.763-0.42158-2.4528-0.42158-0.6132-1.1881-0.88148-1.878-0.88148-1.3031 0-2.4528 0.65153-2.7211 2.0312-0.07665 0.3066-0.26828 0.61321-0.57488 0.61321l-3.2577-0.34493c-0.26828-0.07665-0.57489-0.26828-0.49824-0.68986 0.76652-3.9859 4.3308-5.1739 7.5501-5.1739 1.648 0 3.7942 0.42158 5.0973 1.6863 1.648 1.533 1.4947 3.6026 1.4947 5.8255v5.2506c0 1.5713 0.6515 2.2612 1.2647 3.1427 0.23 0.3066 0.2683 0.6898 0 0.8815-0.7282 0.5748-1.9546 1.6479-2.6444 2.2228-0.23 0.1917-0.5366 0.23-0.8049 0.0767zm-2.5678-8.3167v-0.7281c-2.4528 0-5.0206 0.5365-5.0206 3.4109 0 1.4564 0.76651 2.4529 2.0696 2.4529 0.95813 0 1.8013-0.5749 2.3378-1.5331 0.6515-1.188 0.6132-2.2995 0.6132-3.6026z"/>
</g>
<defs>
<clipPath id="a">
<rect width="109.27" height="33" fill="#fff"/>
</clipPath>
</defs>
</svg>
