<?xml version="1.0" encoding="UTF-8"?>
<svg viewBox="0 0 150 31" xmlns="http://www.w3.org/2000/svg">
<path d="m150 14.514v-2.647h-3.295v-4.117l-0.11 0.034-3.095 0.945-0.061 0.019v3.118h-4.884v-1.736c0-0.81 0.181-1.428 0.538-1.841 0.355-0.408 0.863-0.615 1.51-0.615 0.465 0 0.947 0.11 1.431 0.325l0.122 0.054v-2.788l-0.057-0.021c-0.452-0.162-1.068-0.244-1.83-0.244-0.96 0-1.834 0.209-2.596 0.622-0.75 0.40263-1.368 1.0126-1.78 1.757-0.419 0.751-0.631 1.618-0.631 2.578v1.91h-2.294v2.647h2.294v11.153h3.293v-11.153h4.884v7.088c0 2.919 1.38 4.398 4.1 4.398 0.471-0.0029 0.94-0.0549 1.4-0.155 0.488-0.105 0.822-0.21 1.018-0.322l0.043-0.026v-2.672l-0.134 0.089c-0.204 0.1301-0.428 0.2273-0.662 0.288-0.211 0.065-0.429 0.102-0.65 0.11-0.638 0-1.11-0.171-1.402-0.51-0.296-0.34-0.446-0.938-0.446-1.773v-6.515h3.294zm-24.387 8.799c-1.195 0-2.137-0.396-2.801-1.175-0.669-0.783-1.007-1.9-1.007-3.317 0-1.464 0.338-2.61 1.007-3.406 0.664-0.791 1.598-1.193 2.775-1.193 1.142 0 2.05 0.383 2.702 1.14 0.654 0.762 0.986 1.898 0.986 3.379 0 1.498-0.312 2.65-0.928 3.42-0.612 0.764-1.531 1.152-2.734 1.152zm0.147-11.779c-2.28 0-4.092 0.667-5.383 1.982s-1.945 3.136-1.945 5.41c0 2.161 0.638 3.9 1.898 5.165 1.26 1.267 2.975 1.908 5.096 1.908 2.21 0 3.986-0.676 5.277-2.009 1.29-1.332 1.945-3.135 1.945-5.356 0-2.195-0.614-3.946-1.825-5.204s-2.915-1.896-5.063-1.896zm-12.638 0c-1.551 0-2.834 0.396-3.815 1.177-0.986 0.785-1.486 1.815-1.486 3.062 0 0.647 0.108 1.223 0.32 1.711 0.214 0.49 0.545 0.921 0.985 1.283 0.436 0.359 1.11 0.735 2.001 1.117 0.75 0.308 1.31 0.569 1.665 0.774 0.347 0.201 0.594 0.404 0.733 0.6 0.135 0.193 0.204 0.457 0.204 0.783 0 0.927-0.696 1.378-2.128 1.378-0.53 0-1.136-0.11-1.8-0.329-0.659-0.2145-1.281-0.5288-1.844-0.932l-0.136-0.098v3.164l0.05 0.023c0.466 0.215 1.053 0.396 1.746 0.538 0.613 0.1335 1.237 0.2055 1.864 0.215 1.684 0 3.04-0.398 4.028-1.183 0.996-0.79 1.5-1.845 1.5-3.135 0-0.93-0.271-1.728-0.807-2.37-0.531-0.639-1.454-1.225-2.74-1.743-1.026-0.41-1.683-0.751-1.954-1.013-0.261-0.253-0.394-0.61-0.394-1.063 0-0.401 0.164-0.723 0.5-0.983 0.339-0.262 0.81-0.395 1.401-0.395 0.55 0 1.11 0.087 1.669 0.256 0.517 0.1508 1.008 0.378 1.457 0.674l0.134 0.092v-3.001l-0.051-0.022c-0.378-0.162-0.875-0.3-1.48-0.412-0.535-0.1047-1.077-0.1609-1.622-0.168zm-13.886 11.779c-1.195 0-2.138-0.396-2.802-1.175-0.668-0.783-1.006-1.899-1.006-3.317 0-1.464 0.338-2.61 1.007-3.406 0.664-0.791 1.597-1.193 2.774-1.193 1.142 0 2.05 0.383 2.702 1.14 0.655 0.762 0.987 1.898 0.987 3.379 0 1.498-0.313 2.65-0.929 3.42-0.611 0.764-1.53 1.152-2.733 1.152zm0.147-11.779c-2.281 0-4.093 0.667-5.384 1.982-1.29 1.315-1.945 3.136-1.945 5.41 0 2.162 0.64 3.9 1.9 5.165 1.259 1.267 2.973 1.909 5.094 1.909 2.21 0 3.986-0.676 5.277-2.009 1.29-1.332 1.945-3.135 1.945-5.356 0-2.195-0.614-3.946-1.825-5.204-1.212-1.258-2.916-1.896-5.063-1.896l1e-3 -1e-3zm-12.328 2.723v-2.39h-3.253v13.8h3.253v-7.06c0-1.2 0.273-2.186 0.811-2.93 0.531-0.737 1.24-1.11 2.104-1.11 0.293 0 0.622 0.049 0.978 0.144 0.353 0.095 0.608 0.198 0.759 0.306l0.136 0.099v-3.273l-0.052-0.022c-0.303-0.129-0.732-0.194-1.274-0.194-0.818 0-1.55 0.263-2.176 0.779-0.55 0.453-0.947 1.075-1.251 1.85h-0.035v1e-3zm-9.079-2.723c-1.492 0-2.823 0.32-3.955 0.95-1.1169 0.6124-2.0257 1.5441-2.61 2.676-0.594 1.143-0.896 2.478-0.896 3.966 0 1.304 0.293 2.5 0.871 3.555 0.5584 1.036 1.4039 1.8887 2.435 2.456 1.035 0.573 2.231 0.863 3.556 0.863 1.546 0 2.866-0.309 3.924-0.917l0.043-0.024v-2.974l-0.137 0.1c-0.4869 0.3519-1.023 0.6303-1.591 0.826-0.575 0.2-1.1 0.302-1.56 0.302-1.276 0-2.3-0.399-3.044-1.185-0.746-0.786-1.123-1.891-1.123-3.281 0-1.4 0.394-2.533 1.17-3.369 0.775-0.833 1.802-1.256 3.052-1.256 1.069 0 2.11 0.361 3.096 1.075l0.137 0.098v-3.133l-0.044-0.025c-0.371-0.207-0.877-0.378-1.505-0.508-0.5981-0.1266-1.2076-0.1919-1.819-0.195zm-9.701 0.333h-3.253v13.8h3.253v-13.8zm-1.593-5.879c-0.536 0-1.003 0.182-1.386 0.542-0.1875 0.17142-0.3364 0.38085-0.4365 0.61433-0.1002 0.23349-0.1495 0.48565-0.1445 0.73967 0 0.529 0.193 0.975 0.575 1.327 0.379 0.351 0.847 0.529 1.392 0.529 0.5165 0.01021 1.0172-0.17887 1.398-0.528 0.1873-0.16607 0.3364-0.37081 0.4368-0.60009 0.1005-0.22927 0.15-0.47763 0.1452-0.72791 0-0.518-0.19-0.969-0.566-1.339-0.375-0.37-0.851-0.557-1.414-0.557zm-8.117 4.86v14.819h3.32v-19.257h-4.595l-5.84 14.302-5.668-14.302h-4.782v19.256h3.12v-14.82h0.107l5.985 14.82h2.354l5.892-14.818h0.107z"/>
<path d="M15 14H0V0H15V14ZM32 14H17V0H32V14ZM15 31H0V17H15V31ZM32 31H17V17H32V31Z" clip-rule="evenodd" fill-rule="evenodd"/>
</svg>
