<?xml version="1.0" encoding="UTF-8"?>
<svg fill="none" viewBox="0 0 108 29" xmlns="http://www.w3.org/2000/svg">
<g clip-path="url(#a)">
<path d="m14.714 27.096c-1.6097 0.2827-3.2478 0.3675-4.9423 0.5932l-5.1685-15.138v15.788c-1.6098 0.1694-3.0783 0.3953-4.6035 0.6213v-28.92h4.293l5.8743 16.409v-16.409h4.547v27.056zm8.8965-16.465c1.7511 0 4.4341-0.0848 6.0439-0.0848v4.5187c-2.0053 0-4.3493 0-6.0439 0.0848v6.7218c2.6549-0.1694 5.3097-0.3955 7.9926-0.4803v4.3491l-12.512 0.9887v-26.689h12.512v4.5188h-7.9926v6.0722zm24.797-6.0721h-4.6882v20.786c-1.5252 0-3.0503 0-4.5187 0.0563v-20.843h-4.6882v-4.5189h13.895l-2e-4 4.5189zm7.343 5.7615h6.1852v4.5187h-6.1852v10.252h-4.4344v-25.051h12.625v4.5188h-8.1904v5.7616zm15.533 10.817c2.5701 0.0563 5.1683 0.2543 7.682 0.3953v4.4624c-4.0386-0.2544-8.0773-0.5082-12.201-0.5932v-25.362h4.5187v21.097zm11.495 5.1684c1.4404 0.0848 2.9655 0.1696 4.4341 0.3388v-26.604h-4.4341v26.266zm24.232-26.266-5.733 13.754 5.733 15.166c-1.695-0.226-3.389-0.5367-5.084-0.8191l-3.2475-8.3596-3.3041 7.682c-1.6384-0.2827-3.22-0.3675-4.8577-0.5934l5.8179-13.246-5.2533-13.585h4.8575l2.9655 7.5973 3.1637-7.5973h4.942z" fill="#000"/>
</g>
<defs>
<clipPath id="a">
<rect width="107.01" height="29" fill="#fff"/>
</clipPath>
</defs>
</svg>
