<?xml version="1.0" encoding="UTF-8"?>
<svg fill="none" viewBox="0 0 137 24" xmlns="http://www.w3.org/2000/svg">
<g clip-path="url(#a)" fill="#000">
<path d="m134.25 19.188c-0.767-0.0144-1.482 0.3896-1.869 1.0565-0.388 0.667-0.388 1.4929 0 2.1598 0.387 0.667 1.102 1.071 1.869 1.0565 0.562-6e-4 1.101-0.2267 1.498-0.6285 0.396-0.4017 0.618-0.946 0.616-1.5128 0-0.5652-0.223-1.1074-0.619-1.5071-0.397-0.3998-0.935-0.6244-1.495-0.6244zm0 4.0158c-0.496 6e-4 -0.971-0.1979-1.321-0.5515-0.35-0.3537-0.545-0.8333-0.544-1.3328 1e-3 -0.4978 0.197-0.9751 0.547-1.3266s0.824-0.5483 1.318-0.5471c0.493 0 0.965 0.1974 1.314 0.5488 0.348 0.3514 0.544 0.828 0.544 1.3249 2e-3 0.4986-0.192 0.9775-0.541 1.3311-0.349 0.3535-0.823 0.5526-1.317 0.5532z"/>
<path d="m135.26 20.812c0-0.1954-0.086-0.4009-0.26-0.499-0.174-0.1031-0.37-0.1133-0.566-0.1133h-1.011v2.3149h0.283v-1.0677h0.522l0.663 1.0677h0.337l-0.701-1.0677c0.414-0.0116 0.733-0.1794 0.733-0.6349zm-1.119 0.4119h-0.436v-0.8186h0.663c0.289 0 0.605 0.0435 0.605 0.4016 0 0.4715-0.507 0.417-0.832 0.417zm-12.121-11.604 4.246-4.5216c0.247-0.33195 0.369-0.56439 0.369-0.76341 0-0.33195-0.286-0.46488-1.186-0.46488h-1.072v-2.8546h11.597v2.8546h-1.524c-1.759 0-2.086 0.26513-4.542 3.3522l-6.717 7.2346v4.4149c0 1.1295 0.571 1.5268 2.209 1.5268h2.536v2.7544h-16.243v-2.7544h2.536c1.636 0 2.209-0.3973 2.209-1.5268v-4.4149l-7.912-8.7288c-1.308-1.5261-1.127-1.8581-4.768-1.8581v-2.8546h14.69v2.8546h-1.046c-1.064 0-1.515 0.19903-1.515 0.59708 0 0.33268 0.327 0.5978 0.532 0.86293l4.003 4.351c0.476 0.49325 1.056 0.55715 1.598-0.06102zm-98.56-8.6053h3.5435v7.9654h-3.2726c-0.2898-1.5922-1.2892-2.2118-2.2003-3.0471-1.644-1.5065-5.2042-2.7609-8.1985-2.7609-3.8648 0-7.1264 1.1956-7.1264 2.9534 0 4.8797 22.102 0.99658 22.102 10.223 0 4.8122-4.7344 7.5005-13.237 7.5005-2.9433 0-7.3973-0.9109-10.025-2.3026-0.82378-0.4743-1.1734 0.4489-1.3278 1.606h-3.6331v-8.2312h3.2864c0.72472 2.0912 1.7233 2.5219 2.6418 3.3522 1.5937 1.4607 5.387 2.5234 8.8657 2.4892 5.245-0.0515 7.0484-1.1948 7.0484-2.8546 0-1.659-1.7838-2.0578-7.5313-2.9534l-4.8801-0.7968c-5.5072-0.8303-9.5168-2.0578-9.5168-6.4386 0-4.5471 5.0724-7.4017 13.092-7.4017 3.3796 0 6.2071 0.45035 8.921 1.9801 0.7517 0.4874 1.4568 0.54551 1.4473-1.2828zm69.154 13.336 0.0699-8.853c0-1.1615-0.606-1.5595-2.3374-1.5595h-2.0343v-2.7544h12.943v2.7544h-1.6868c-1.7328 0-2.3388 0.39878-2.3388 1.5595v17.823l-5.0658-0.0399-16.406-15.493v11.251c0 1.1288 0.606 1.5595 2.3373 1.5595h2.2521v2.7217h-13.442v-2.7217h2.2274c1.7313 0 2.3373-0.4315 2.3373-1.5595v-13.542c0-1.1615-0.606-1.5595-2.3373-1.5595h-2.2274v-2.7544h11.622l14.087 13.167zm-43.355-14.201c-10.315 0-16.772 4.5478-16.772 11.849 0 7.17 6.3674 11.683 16.457 11.683 10.717 0 16.951-4.4468 16.951-12.048 7e-4 -6.8366-6.7265-11.484-16.637-11.484zm-0.2346 20.645c-5.7096 0-8.9916-3.2861-8.9916-8.9619 0-5.5422 3.4247-8.8283 9.2772-8.8283 5.6142 0 8.8962 3.3529 8.8962 9.0614 0 5.5757-3.3301 8.7288-9.1818 8.7288z"/>
</g>
<defs>
<clipPath id="a">
<rect width="136.36" height="24" fill="#fff"/>
</clipPath>
</defs>
</svg>
