<?xml version="1.0" encoding="UTF-8"?>
<svg fill="none" viewBox="0 0 139 31" xmlns="http://www.w3.org/2000/svg">
<g clip-path="url(#a)" fill="#000">
<path d="m61.257 2.8428h-5.9818v5.6833h5.9818v-5.6833zm0 7.1484h-5.9818v20.15h5.9818v-20.151 0.00114zm-46.938-0.00574-4.0507 13.307-4.2424-13.284-6.0255 0.0034 7.099 20.127h6.4296l6.7362-20.153h-5.9474 0.0012zm65.23 4.9129v-4.906h-16.58v4.9072h9.5606l-9.5606 10.43v4.8118h17.265v-4.813h-9.7765l9.0922-10.429v-0.0012zm-32.646-1.7635v-3.1437h-5.8555v20.15h5.8544v-9.0554c0.1722-5.1896 4.5065-5.6489 4.5065-5.6489h1.9863v-5.4468h-2.1585c-1.8486 0-3.5995 2.1229-4.332 3.1436l-0.0012 0.0012zm-17.498-3.8348c-5.5812 0-10.106 4.8566-10.106 10.85 0 5.9933 4.5237 10.85 10.106 10.85 4.2252 0 8.3734-2.7533 9.8809-6.7052l-5.6121-0.031c-0.8692 1.4007-2.2894 2.3009-4.4204 2.1952-2.0965-0.1056-3.8658-2.0023-4.371-4.7143h14.516c0.0723-0.5189 0.1102-1.0517 0.1102-1.5936 0-5.9933-4.5226-10.85-10.104-10.85v-0.00115zm-4.3285 8.44c0.6774-2.294 2.2928-3.906 4.1792-3.906 1.8876 0 3.5019 1.6154 4.1793 3.906h-8.3585z"/>
<path d="m90.893 9.3c-5.9704 0-10.812 4.8567-10.812 10.85s4.8405 10.85 10.812 10.85c5.9703 0 10.811-4.8567 10.811-10.85s-4.8393-10.85-10.811-10.85zm0.0643 17.095c-2.4996 0-4.5283-2.7854-4.5283-6.2207 0-3.4364 2.0287-6.2207 4.5283-6.2207 2.5029 0 4.5294 2.7843 4.5294 6.2207 0 3.433-2.0276 6.2207-4.5294 6.2207zm30.978-9.4631c-0.028-6.4009-4.93-8.0772-8.555-7.2333-2.154 0.50169-3.711 2.0621-4.456 2.9588v-2.666h-5.789v20.15h5.789v-12.212c1.251-3.6913 3.912-3.9083 5.543-2.9014 1.438 0.8887 1.656 2.906 1.656 2.906v12.207h5.812v-13.211 0.0011zm-3e-3 -6.9428 4.702 10.161h2.564l9.23-20.15h-3.12l-7.479 16.189-2.692-6.2h-3.205z"/>
</g>
<defs>
<clipPath id="a">
<rect width="138.93" height="31" fill="#fff"/>
</clipPath>
</defs>
</svg>
